<svg width="75" height="38" viewBox="0 0 75 38" fill="none" xmlns="http://www.w3.org/2000/svg">
<g clip-path="url(#clip0_501_7395)">
<path fill-rule="evenodd" clip-rule="evenodd" d="M32.6777 1.56648L29.7377 13.0406C27.7734 10.5062 24.9537 8.77515 21.8063 8.17149L30.753 0.317454C30.871 0.215923 31.0078 0.138669 31.1557 0.0901007C31.3036 0.0415325 31.4595 0.0226017 31.6147 0.0343979C31.7699 0.0461941 31.9212 0.0884845 32.0601 0.158847C32.1989 0.22921 32.3225 0.326268 32.4239 0.444475C32.5596 0.593482 32.6544 0.77523 32.6989 0.971913C32.7434 1.1686 32.7361 1.37348 32.6777 1.56648ZM30.7741 27.669L32.3393 30.2729C32.8257 31.035 32.0643 32.0512 31.0914 31.8395L27.9399 31.1197C29.0753 30.1406 30.034 28.9733 30.7741 27.669ZM24.4924 33.279L23.9425 36.9837C23.8904 37.2932 23.7199 37.5702 23.4672 37.756C23.2145 37.9417 22.8994 38.0216 22.5888 37.9787C22.4228 37.9508 22.2641 37.8895 22.1223 37.7985C21.9806 37.7076 21.8587 37.5888 21.764 37.4495L19.5643 34.3375C21.2586 34.2951 22.9299 33.9361 24.4924 33.279ZM15.0169 33.6177L10.2369 36.8779C10.0364 37.0175 9.7983 37.0929 9.55408 37.094C9.30986 37.0952 9.07105 37.022 8.86926 36.8843C8.66748 36.7466 8.51224 36.5508 8.42409 36.3229C8.33595 36.0949 8.31905 35.8455 8.37565 35.6077L9.53893 29.9977C11.0359 31.6413 12.9187 32.8855 15.0169 33.6177ZM7.74113 27.4361L0.994094 26.1659C0.680268 26.1092 0.401683 25.9303 0.219336 25.6684C0.0369882 25.4066 -0.0342672 25.083 0.0211652 24.7687C0.0483965 24.608 0.10967 24.4549 0.200869 24.3198C0.292068 24.1847 0.411084 24.0707 0.54993 23.9854L6.17599 20.1748C6.15484 20.4924 6.13368 20.8099 6.13368 21.1275C6.12614 23.3328 6.67931 25.5038 7.74113 27.4361ZM6.51439 18.0155L1.1633 11.1776C0.969854 10.9256 0.881602 10.6082 0.917103 10.2924C0.952603 9.97654 1.10909 9.68677 1.35365 9.48403C1.49575 9.37399 1.661 9.29774 1.83689 9.26106C2.01278 9.22438 2.1947 9.22824 2.36888 9.27233L10.533 11.2835C8.54561 13.0703 7.14472 15.4171 6.51439 18.0155ZM12.077 10.098L12.8384 1.10074C12.8654 0.784208 13.016 0.491089 13.2575 0.284996C13.4991 0.0789031 13.8121 -0.0235381 14.1286 -9.49474e-05C14.3264 0.0126244 14.5176 0.0756965 14.6842 0.183139C14.8507 0.290582 14.9871 0.438838 15.0804 0.613838L19.797 7.93862H19.3317C16.754 7.92908 14.2306 8.68014 12.077 10.098Z" fill="#FFED00"/>
<path fill-rule="evenodd" clip-rule="evenodd" d="M72.7581 21.8473C72.7581 21.1276 72.5889 20.556 72.2081 20.1538C72.0249 19.9503 71.7992 19.7899 71.5469 19.6837C71.2947 19.5776 71.0221 19.5285 70.7488 19.5398C70.3786 19.5401 70.0146 19.6349 69.6912 19.815C69.3853 20.0095 69.1427 20.289 68.9933 20.6195C68.833 21.0087 68.7538 21.4265 68.7606 21.8473C68.7537 22.2614 68.8329 22.6723 68.9933 23.054C69.1427 23.3845 69.3853 23.6641 69.6912 23.8585C70.0098 24.0506 70.3771 24.1461 70.7488 24.1337C71.0221 24.145 71.2947 24.0959 71.5469 23.9898C71.7992 23.8837 72.0249 23.7232 72.2081 23.5198C72.5889 23.1175 72.7581 22.546 72.7581 21.8473ZM17.7877 18.9894C18.1084 18.5628 18.5236 18.2164 19.0007 17.9777C19.4779 17.7389 20.0038 17.6142 20.5372 17.6134H20.8334C22.7581 17.6134 23.9425 19.3493 23.9425 21.3393V25.1075C23.9425 25.3321 23.8534 25.5475 23.6947 25.7063C23.536 25.8651 23.3208 25.9543 23.0965 25.9543H22.4196C22.1953 25.9543 21.9801 25.8651 21.8214 25.7063C21.6628 25.5475 21.5736 25.3321 21.5736 25.1075V21.2546C21.5736 20.3866 20.9814 19.688 20.1354 19.688H19.9027C19.0567 19.688 18.4433 20.3866 18.4433 21.2546V25.1075C18.4433 25.3321 18.3542 25.5475 18.1955 25.7063C18.0369 25.8651 17.8217 25.9543 17.5973 25.9543H16.9205C16.6961 25.9543 16.4809 25.8651 16.3223 25.7063C16.1636 25.5475 16.0745 25.3321 16.0745 25.1075V21.2546C16.0745 20.3866 15.4823 19.688 14.6362 19.688H14.4036C13.5576 19.688 12.9442 20.3866 12.9442 21.2546V25.1075C12.9442 25.3321 12.8551 25.5475 12.6964 25.7063C12.5377 25.8651 12.3225 25.9543 12.0982 25.9543H11.4213C11.197 25.9543 10.9818 25.8651 10.8231 25.7063C10.6645 25.5475 10.5753 25.3321 10.5753 25.1075V18.6083C10.5753 18.3838 10.6645 18.1684 10.8231 18.0096C10.9818 17.8508 11.197 17.7616 11.4213 17.7616H12.0982C12.3225 17.7616 12.5377 17.8508 12.6964 18.0096C12.8551 18.1684 12.9442 18.3838 12.9442 18.6083V18.6507C13.2023 18.3155 13.5364 18.0467 13.9189 17.8663C14.3014 17.6859 14.7213 17.5992 15.1438 17.6134H15.3342C15.827 17.6113 16.312 17.7369 16.7419 17.9781C17.1719 18.2192 17.5321 18.5676 17.7877 18.9894ZM26.396 14.5014H26.967C27.2026 14.5014 27.4286 14.5951 27.5952 14.7618C27.7618 14.9286 27.8554 15.1547 27.8554 15.3905V15.9833C27.8554 16.2191 27.7618 16.4452 27.5952 16.612C27.4286 16.7787 27.2026 16.8724 26.967 16.8724H26.396C26.2775 16.8752 26.1597 16.8543 26.0495 16.8109C25.9393 16.7675 25.8388 16.7024 25.7541 16.6196C25.6694 16.5368 25.602 16.4378 25.5561 16.3285C25.5101 16.2192 25.4865 16.1018 25.4865 15.9833V15.3905C25.4865 15.272 25.5101 15.1546 25.5561 15.0453C25.602 14.936 25.6694 14.837 25.7541 14.7542C25.8388 14.6713 25.9393 14.6063 26.0495 14.5629C26.1597 14.5195 26.2775 14.4986 26.396 14.5014ZM26.3325 17.7616H27.0093C27.2337 17.7616 27.4489 17.8508 27.6076 18.0096C27.7662 18.1684 27.8554 18.3838 27.8554 18.6083V25.1075C27.8554 25.3321 27.7662 25.5475 27.6076 25.7063C27.4489 25.8651 27.2337 25.9543 27.0093 25.9543H26.3325C26.1081 25.9543 25.8929 25.8651 25.7343 25.7063C25.5756 25.5475 25.4865 25.3321 25.4865 25.1075V18.6083C25.4865 18.3838 25.5756 18.1684 25.7343 18.0096C25.8929 17.8508 26.1081 17.7616 26.3325 17.7616ZM30.8799 14.7978H30.1819C29.9612 14.8033 29.7514 14.8949 29.5973 15.0532C29.4432 15.2114 29.357 15.4236 29.357 15.6446V25.1075C29.357 25.3285 29.4432 25.5407 29.5973 25.6989C29.7514 25.8571 29.9612 25.9488 30.1819 25.9543H30.8799C31.1043 25.9543 31.3195 25.8651 31.4781 25.7063C31.6368 25.5475 31.7259 25.3321 31.7259 25.1075C31.9887 25.3977 32.3046 25.6348 32.6565 25.8061C33.1231 26.0099 33.6281 26.111 34.1371 26.1025C34.6755 26.1099 35.2092 26.0016 35.7022 25.7849C36.1623 25.5974 36.569 25.2993 36.8867 24.917C37.2268 24.5232 37.4792 24.0613 37.6269 23.5621C37.7825 23.0039 37.8608 22.4269 37.8596 21.8473C37.862 21.2538 37.7838 20.6627 37.6269 20.0902C37.4709 19.5946 37.2194 19.1343 36.8867 18.7354C36.5622 18.3656 36.1569 18.0758 35.7022 17.8886C35.2086 17.6738 34.6753 17.5656 34.1371 17.571C33.6255 17.559 33.1183 17.6678 32.6565 17.8886C32.2903 18.0554 31.9707 18.3099 31.7259 18.6295V15.6446C31.7259 15.42 31.6368 15.2046 31.4781 15.0458C31.3195 14.887 31.1043 14.7978 30.8799 14.7978ZM31.7259 22.6518V21.1064C31.8132 20.7639 31.9881 20.4502 32.2335 20.1961C32.402 19.9887 32.615 19.8221 32.8566 19.7084C33.0983 19.5948 33.3625 19.5372 33.6295 19.5398C33.9929 19.54 34.3501 19.6348 34.6658 19.815C34.9718 20.0095 35.2144 20.289 35.3638 20.6195C35.5241 21.0087 35.6033 21.4265 35.5965 21.8473C35.6034 22.2614 35.5241 22.6723 35.3638 23.054C35.2212 23.3888 34.977 23.6702 34.6658 23.8585C34.3548 24.05 33.9944 24.1457 33.6295 24.1337C33.3518 24.1328 33.0776 24.0718 32.8257 23.9549C32.5738 23.838 32.3501 23.6679 32.1701 23.4563C31.9579 23.2289 31.8053 22.9525 31.7259 22.6518ZM45.8545 17.7616H46.5313C46.7557 17.7616 46.9709 17.8508 47.1296 18.0096C47.2882 18.1684 47.3773 18.3838 47.3773 18.6083V25.1075C47.3773 25.3321 47.2882 25.5475 47.1296 25.7063C46.9709 25.8651 46.7557 25.9543 46.5313 25.9543H45.8545C45.6301 25.9543 45.4149 25.8651 45.2563 25.7063C45.0976 25.5475 45.0085 25.3321 45.0085 25.1075C44.7337 25.3934 44.4117 25.6297 44.0567 25.8061C43.5901 26.0099 43.0852 26.111 42.5762 26.1025C42.0378 26.1099 41.504 26.0016 41.011 25.7849C40.5572 25.5865 40.1527 25.2901 39.8266 24.917C39.4929 24.522 39.2477 24.06 39.1075 23.5621C38.9343 23.0072 38.8486 22.4287 38.8537 21.8473C38.8473 21.2521 38.933 20.6594 39.1075 20.0902C39.2477 19.5924 39.4929 19.1304 39.8266 18.7354C40.151 18.3656 40.5564 18.0758 41.011 17.8886C41.5054 17.6761 42.0382 17.568 42.5762 17.571C43.0877 17.559 43.595 17.6678 44.0567 17.8886C44.4256 18.0608 44.7509 18.3141 45.0085 18.6295C45.0085 18.4049 45.0976 18.1895 45.2563 18.0307C45.4149 17.8719 45.6301 17.7827 45.8545 17.7827V17.7616ZM45.0085 22.6518V21.1064C44.904 20.7711 44.7311 20.4611 44.5009 20.1961C44.3314 19.9899 44.1182 19.824 43.8768 19.7105C43.6353 19.597 43.3717 19.5387 43.1049 19.5398C42.7348 19.5401 42.3708 19.6349 42.0474 19.815C41.7415 20.0095 41.4989 20.289 41.3494 20.6195C41.1892 21.0087 41.11 21.4265 41.1168 21.8473C41.1099 22.2614 41.1891 22.6723 41.3494 23.054C41.4989 23.3845 41.7415 23.6641 42.0474 23.8585C42.3659 24.0506 42.7333 24.1461 43.1049 24.1337C43.3824 24.1314 43.6561 24.0698 43.9078 23.953C44.1595 23.8362 44.3834 23.6668 44.5643 23.4563C44.7612 23.2182 44.9119 22.9453 45.0085 22.6518ZM65.44 25.1075C65.1069 25.4321 64.7006 25.6717 64.2555 25.8061C63.6781 26.0091 63.0697 26.1094 62.4577 26.1025C61.8506 26.1116 61.2475 26.0038 60.6811 25.7849C60.1669 25.5957 59.6984 25.2999 59.3063 24.917C58.9199 24.5357 58.6236 24.0728 58.4391 23.5621C58.0439 22.4459 58.0439 21.2276 58.4391 20.1114C58.6285 19.6032 58.9242 19.1412 59.3063 18.7565C59.7038 18.3806 60.1708 18.0857 60.6811 17.8886C61.8352 17.4661 63.1014 17.4661 64.2555 17.8886C64.6997 18.0579 65.1438 18.2273 65.44 18.566C65.7361 18.9047 65.8418 19.0953 65.588 19.3705L64.9323 20.1538C64.6574 20.4713 64.2767 20.3019 64.044 20.0902C63.6248 19.7197 63.0802 19.5228 62.5212 19.5398C62.1436 19.5345 61.7714 19.6295 61.4425 19.815C61.1411 20.0147 60.8998 20.2928 60.7445 20.6195C60.4282 21.4001 60.4282 22.2734 60.7445 23.054C60.894 23.3845 61.1366 23.6641 61.4425 23.8585C61.7676 24.0534 62.1425 24.1491 62.5212 24.1337C63.0802 24.1507 63.6248 23.9539 64.044 23.5833C64.2767 23.3716 64.6574 23.2022 64.9323 23.5409L65.588 24.303C65.8418 24.5994 65.6938 24.8111 65.44 25.1075ZM51.2268 18.6719C51.4981 18.3341 51.8432 18.0631 52.2355 17.8796C52.6278 17.6961 53.0569 17.605 53.4899 17.6134H53.7014C55.6261 17.6134 56.9374 19.3493 56.9374 21.3393V25.1075C56.9374 25.3321 56.8483 25.5475 56.6896 25.7063C56.531 25.8651 56.3158 25.9543 56.0914 25.9543H55.4146C55.1902 25.9543 54.975 25.8651 54.8163 25.7063C54.6577 25.5475 54.5686 25.3321 54.5686 25.1075V21.2546C54.5686 20.8391 54.4036 20.4406 54.1101 20.1469C53.8166 19.8531 53.4185 19.688 53.0034 19.688H52.7919C52.3768 19.688 51.9787 19.8531 51.6852 20.1469C51.3917 20.4406 51.2268 20.8391 51.2268 21.2546V25.1075C51.2268 25.3321 51.1376 25.5475 50.979 25.7063C50.8203 25.8651 50.6051 25.9543 50.3807 25.9543H49.7039C49.4795 25.9543 49.2643 25.8651 49.1057 25.7063C48.947 25.5475 48.8579 25.3321 48.8579 25.1075V18.6083C48.8579 18.3838 48.947 18.1684 49.1057 18.0096C49.2643 17.8508 49.4795 17.7616 49.7039 17.7616H50.3807C50.6051 17.7616 50.8203 17.8508 50.979 18.0096C51.1376 18.1684 51.2268 18.3838 51.2268 18.6083V18.6719ZM75 21.8473C75.0014 22.4318 74.9012 23.012 74.7039 23.5621C74.5169 24.0716 74.2209 24.534 73.8367 24.917C73.4476 25.2987 72.9878 25.6007 72.4831 25.8061C71.9125 26.0071 71.3113 26.1074 70.7064 26.1025C70.0994 26.1116 69.4962 26.0038 68.9298 25.7849C68.422 25.5954 67.9605 25.2994 67.5762 24.917C67.1898 24.5357 66.8935 24.0728 66.709 23.5621C66.5117 23.012 66.4115 22.4318 66.4129 21.8473C66.4096 21.2489 66.5098 20.6545 66.709 20.0902C66.9012 19.5834 67.1965 19.122 67.5762 18.7354C67.9637 18.362 68.4247 18.0736 68.9298 17.8886C69.4962 17.6698 70.0994 17.5619 70.7064 17.571C71.3132 17.566 71.9156 17.6737 72.4831 17.8886C72.9895 18.081 73.4504 18.3766 73.8367 18.7565C74.2231 19.1378 74.5194 19.6007 74.7039 20.1114C74.9032 20.6683 75.0035 21.2558 75 21.8473Z" fill="white"/>
</g>
<defs>
<clipPath id="clip0_501_7395">
<rect width="75" height="38" fill="white"/>
</clipPath>
</defs>
</svg>
